<svg xmlns="http://www.w3.org/2000/svg" width="16" height="16" viewBox="0 0 16 16">
  <defs>
    <style>.a {
      fill: #fff;
      opacity: 0;
    }

    </style>
  </defs>
  <g transform="translate(-164 -943)">
    <rect class="a" width="16" height="16" transform="translate(164 943)"/>
    <path fill="#9e955f"
          d="M16.258,5.014c-.095.015-.2.031-.3.043a18.039,18.039,0,0,1-1.855.159,11.261,11.261,0,0,1-2.393-.373A11.721,11.721,0,0,0,9.241,4.5a4.52,4.52,0,0,0-2.366.41L6.75,5V15.811a.437.437,0,0,0,.376.438.428.428,0,0,0,.48-.425V11.1a.249.249,0,0,1,.2-.242,7.426,7.426,0,0,1,1.438-.119,11.462,11.462,0,0,1,2.344.474,10.789,10.789,0,0,0,2.552.352,14.509,14.509,0,0,0,2.2-.2.247.247,0,0,0,.211-.242V5.256A.249.249,0,0,0,16.258,5.014Z"
          transform="translate(160.827 940.541)"/>
  </g>
</svg>
