<svg xmlns="http://www.w3.org/2000/svg" width="16" height="16" viewBox="0 0 16 16">
  <defs>
    <style>.a {
      fill: #fff;
      opacity: 0;
    }
    </style>
  </defs>
  <g transform="translate(-164 -943)">
    <rect class="a" width="16" height="16" transform="translate(164 943)"/>
    <path fill="#df4242"
          d="M15.845,4.992c-.091.015-.187.029-.29.041a17.255,17.255,0,0,1-1.774.152,10.771,10.771,0,0,1-2.289-.357A11.212,11.212,0,0,0,9.133,4.5a4.323,4.323,0,0,0-2.263.392l-.12.085V15.319a.418.418,0,0,0,.36.419.41.41,0,0,0,.46-.407v-4.52a.238.238,0,0,1,.187-.231,7.1,7.1,0,0,1,1.376-.114,10.964,10.964,0,0,1,2.242.454,10.32,10.32,0,0,0,2.441.337,13.878,13.878,0,0,0,2.1-.193.236.236,0,0,0,.2-.231V5.223A.238.238,0,0,0,15.845,4.992Z"
          transform="translate(161.04 940.797)"/>
  </g>
</svg>
