<svg xmlns="http://www.w3.org/2000/svg" width="12.145" height="12.132" viewBox="0 0 12.145 12.132"><defs><style>.a{fill:#9d9a9f;}</style></defs><g transform="translate(0 -0.256)"><g transform="translate(6.634 0.256)"><g transform="translate(0 0)"><path class="a" d="M260.113.256a12.285,12.285,0,0,1,1.6,3.26,7.043,7.043,0,0,0,2.4-.84l.218-.135A6.081,6.081,0,0,0,260.113.256Z" transform="translate(-260.113 -0.256)"/></g></g><g transform="translate(4.344 4.494)"><g transform="translate(0 0)"><path class="a" d="M173.578,166.4a13.373,13.373,0,0,1-3.047,0,8.314,8.314,0,0,0-.2,1.393h3.456A8.311,8.311,0,0,0,173.578,166.4Z" transform="translate(-170.326 -166.4)"/></g></g><g transform="translate(4.788 8.934)"><path class="a" d="M189.017,340.48a12.62,12.62,0,0,0-1.284.067,11.683,11.683,0,0,0,1.284,2.659,11.683,11.683,0,0,0,1.284-2.659A12.62,12.62,0,0,0,189.017,340.48Z" transform="translate(-187.733 -340.48)"/></g><g transform="translate(8.46 6.757)"><path class="a" d="M331.9,255.147a9.226,9.226,0,0,1-.208,1.526,7.79,7.79,0,0,1,2.631.945l.246.153a6.054,6.054,0,0,0,.808-2.625Z" transform="translate(-331.69 -255.147)"/></g><g transform="translate(8.46 3.262)"><g transform="translate(0 0)"><path class="a" d="M334.567,118.118l-.246.153a7.791,7.791,0,0,1-2.631.948,9.22,9.22,0,0,1,.208,1.524h3.477A6.054,6.054,0,0,0,334.567,118.118Z" transform="translate(-331.69 -118.118)"/></g></g><g transform="translate(4.344 6.757)"><path class="a" d="M170.325,255.147a8.308,8.308,0,0,0,.205,1.393,13.422,13.422,0,0,1,3.047,0,8.311,8.311,0,0,0,.2-1.393Z" transform="translate(-170.325 -255.147)"/></g><g transform="translate(0 3.262)"><g transform="translate(0 0)"><path class="a" d="M1.054,118.271l-.246-.153A6.054,6.054,0,0,0,0,120.742H3.477a9.221,9.221,0,0,1,.208-1.524A7.792,7.792,0,0,1,1.054,118.271Z" transform="translate(0 -118.118)"/></g></g><g transform="translate(1.297 9.128)"><path class="a" d="M53.457,348.109a7.05,7.05,0,0,0-2.4.839l-.218.135a6.079,6.079,0,0,0,4.214,2.285A12.276,12.276,0,0,1,53.457,348.109Z" transform="translate(-50.842 -348.109)"/></g><g transform="translate(4.788 0.985)"><path class="a" d="M189.017,28.826a11.689,11.689,0,0,0-1.284,2.659,12.414,12.414,0,0,0,2.568,0A11.689,11.689,0,0,0,189.017,28.826Z" transform="translate(-187.733 -28.826)"/></g><g transform="translate(6.633 9.128)"><path class="a" d="M264.059,348.947a7.051,7.051,0,0,0-2.4-.839,12.276,12.276,0,0,1-1.6,3.259,6.078,6.078,0,0,0,4.214-2.285Z" transform="translate(-260.062 -348.108)"/></g><g transform="translate(1.298 0.256)"><g transform="translate(0 0)"><path class="a" d="M50.893,2.542l.216.135a7.043,7.043,0,0,0,2.4.84,12.285,12.285,0,0,1,1.6-3.26A6.081,6.081,0,0,0,50.893,2.542Z" transform="translate(-50.893 -0.257)"/></g></g><g transform="translate(0 6.757)"><path class="a" d="M3.477,255.147H0a6.054,6.054,0,0,0,.808,2.625l.246-.153a7.792,7.792,0,0,1,2.631-.945A9.214,9.214,0,0,1,3.477,255.147Z" transform="translate(0 -255.147)"/></g></g></svg>