<svg xmlns="http://www.w3.org/2000/svg" width="108.278" height="75.812" viewBox="0 0 108.278 75.812"><defs><style>.a{fill:red;}.b{fill:#fff;}</style></defs><path class="a" d="M106.047,11.863A13.566,13.566,0,0,0,96.5,2.319C88.031,0,54.138,0,54.138,0S20.246,0,11.773,2.231A13.843,13.843,0,0,0,2.23,11.863C0,20.335,0,37.906,0,37.906S0,55.565,2.23,63.949a13.568,13.568,0,0,0,9.544,9.544c8.562,2.319,42.365,2.319,42.365,2.319s33.892,0,42.365-2.23a13.566,13.566,0,0,0,9.544-9.543c2.23-8.473,2.23-26.043,2.23-26.043s.089-17.66-2.23-26.133Zm0,0" transform="translate(0 0)"/><path class="b" d="M204.969,134.95l28.184-16.233-28.184-16.233Zm0,0" transform="translate(-161.622 -80.811)"/></svg>